<?xml version="1.0" encoding="UTF-8"?>
<svg xmlns="http://www.w3.org/2000/svg" viewBox="0 0 41.65 46.78">
  <defs>
    <style>
      .cls-1 {
        fill: #f1f2f2;
      }
    </style>
  </defs>
  <g id="Layer_1" data-name="Layer 1"/>
  <g id="Layer_2" data-name="Layer 2">
    <g id="Layer_1-2" data-name="Layer 1">
      <g>
        <path class="cls-1" d="M3.65,4.19L5.03,.47c.1-.28,.37-.47,.68-.47h29.77c.29,0,.55,.17,.67,.44l1.56,3.72c.2,.48-.15,1-.67,1H4.33c-.5,0-.85-.5-.68-.97Z"/>
        <path class="cls-1" d="M40.45,4.19H1.2C.47,4.19-.09,4.79,.01,5.46L6.54,45.83c.09,.54,.59,.94,1.19,.94h25.91c.59,0,1.1-.4,1.19-.94L41.64,5.47c.11-.67-.45-1.28-1.19-1.28ZM12.06,45.33l-2.6,.35c-.44,.06-.85-.25-.91-.7L3.66,8.6c-.06-.44,.25-.85,.7-.91l2.6-.35c.44-.06,.85,.25,.91,.7l4.89,36.38c.06,.44-.25,.85-.7,.91Zm10.89-.7c0,.45-.36,.81-.81,.81h-2.62c-.45,0-.81-.36-.81-.81V7.92c0-.45,.36-.81,.81-.81h2.62c.45,0,.81,.36,.81,.81V44.63Zm9.17,.12c-.06,.44-.48,.75-.92,.69l-2.6-.37c-.44-.06-.75-.48-.69-.92L33.13,7.81c.06-.44,.48-.75,.92-.69l2.6,.37c.44,.06,.75,.48,.69,.92l-5.22,36.33Z"/>
      </g>
    </g>
  </g>
</svg>