<?xml version="1.0" encoding="UTF-8"?>
<svg xmlns="http://www.w3.org/2000/svg" viewBox="0 0 73.51 73.51">
  <defs>
    <style>
      .cls-1 {
        fill: #f1f2f2;
      }
    </style>
  </defs>
  <g id="Layer_1" data-name="Layer 1"/>
  <g id="Layer_2" data-name="Layer 2">
    <g id="Layer_1-2" data-name="Layer 1">
      <path class="cls-1" d="M68.15,36.75c0-1.17-.07-2.32-.19-3.45l5.54-3.08c-.38-2.13-.92-4.2-1.65-6.19l-6.35,.11c-.93-2.12-2.09-4.13-3.45-5.97l3.26-5.44c-1.38-1.64-2.9-3.16-4.53-4.53l-5.44,3.26c-1.85-1.36-3.85-2.52-5.97-3.45l.11-6.35c-1.99-.72-4.06-1.27-6.19-1.65l-3.08,5.54c-1.13-.12-2.28-.19-3.45-.19s-2.32,.07-3.45,.19L30.22,0c-2.13,.38-4.2,.92-6.19,1.65l.11,6.35c-2.12,.93-4.13,2.09-5.97,3.45l-5.44-3.26c-1.64,1.38-3.16,2.9-4.53,4.53l3.26,5.44c-1.36,1.85-2.52,3.85-3.45,5.97l-6.35-.11C.92,26.02,.38,28.09,0,30.22l5.54,3.08c-.12,1.13-.19,2.28-.19,3.45s.07,2.32,.19,3.45l-5.54,3.08c.38,2.13,.92,4.2,1.65,6.19l6.35-.11c.93,2.12,2.09,4.13,3.45,5.97l-3.26,5.44c1.38,1.64,2.9,3.16,4.53,4.53l5.44-3.26c1.85,1.36,3.85,2.52,5.97,3.45l-.11,6.35c1.99,.72,4.06,1.27,6.19,1.65l3.08-5.54c1.13,.12,2.28,.19,3.45,.19s2.32-.07,3.45-.19l3.08,5.54c2.13-.38,4.2-.92,6.19-1.65l-.11-6.35c2.12-.93,4.13-2.09,5.97-3.45l5.44,3.26c1.64-1.38,3.16-2.9,4.53-4.53l-3.26-5.44c1.36-1.85,2.52-3.85,3.45-5.97l6.35,.11c.72-1.99,1.27-4.06,1.65-6.19l-5.54-3.08c.12-1.13,.19-2.28,.19-3.45Zm-31.4,13.75c-7.59,0-13.75-6.16-13.75-13.75s6.16-13.75,13.75-13.75,13.75,6.16,13.75,13.75-6.16,13.75-13.75,13.75Z"/>
    </g>
  </g>
</svg>