<?xml version="1.0" encoding="UTF-8" standalone="no"?>
<!DOCTYPE svg PUBLIC "-//W3C//DTD SVG 1.1//EN" "http://www.w3.org/Graphics/SVG/1.1/DTD/svg11.dtd">
<svg width="100%" height="100%" viewBox="0 0 756 756" version="1.1" xmlns="http://www.w3.org/2000/svg" xmlns:xlink="http://www.w3.org/1999/xlink" xml:space="preserve" xmlns:serif="http://www.serif.com/" style="fill-rule:evenodd;clip-rule:evenodd;stroke-linejoin:round;stroke-miterlimit:2;">
    <g transform="matrix(1,0,0,1,-9259,-992)">
        <g id="checkmark_off2" transform="matrix(1,0,0,1,-0.125984,0)">
            <rect x="9259.126" y="992" width="755.906" height="755.906" style="fill:none;"/>
            <g transform="matrix(0.852832,0,0,1.633806,1453.008231,-614.382974)">
                <path d="M9980.837,1052.313C9987.691,1052.313 9993.247,1055.213 9993.247,1058.79C9993.247,1073.114 9993.247,1107.338 9993.247,1121.662C9993.247,1125.239 9987.691,1128.14 9980.837,1128.14C9898.913,1128.14 9436.583,1128.14 9354.659,1128.14C9347.805,1128.14 9342.249,1125.239 9342.249,1121.662C9342.249,1107.338 9342.249,1073.114 9342.249,1058.79C9342.249,1055.213 9347.805,1052.313 9354.659,1052.313C9436.583,1052.313 9898.913,1052.313 9980.837,1052.313Z" style="fill:white;"/>
            </g>
            <g transform="matrix(1,0,0,1,7.95327,58.704646)">
                <circle cx="9334.346" cy="1108.13" r="61.943" style="fill:white;"/>
            </g>
            <g transform="matrix(0.852832,0,0,1.633806,1453.008231,-433.572663)">
                <path d="M9980.837,1052.313C9987.691,1052.313 9993.247,1055.213 9993.247,1058.79C9993.247,1073.114 9993.247,1107.338 9993.247,1121.662C9993.247,1125.239 9987.691,1128.14 9980.837,1128.14C9898.913,1128.14 9436.583,1128.14 9354.659,1128.14C9347.805,1128.14 9342.249,1125.239 9342.249,1121.662C9342.249,1107.338 9342.249,1073.114 9342.249,1058.79C9342.249,1055.213 9347.805,1052.313 9354.659,1052.313C9436.583,1052.313 9898.913,1052.313 9980.837,1052.313Z" style="fill:white;"/>
            </g>
            <g transform="matrix(1,0,0,1,7.95327,239.514957)">
                <circle cx="9334.346" cy="1108.13" r="61.943" style="fill:white;"/>
            </g>
            <g transform="matrix(0.852832,0,0,1.633806,1453.008231,-252.762352)">
                <path d="M9980.837,1052.313C9987.691,1052.313 9993.247,1055.213 9993.247,1058.79C9993.247,1073.114 9993.247,1107.338 9993.247,1121.662C9993.247,1125.239 9987.691,1128.14 9980.837,1128.14C9898.913,1128.14 9436.583,1128.14 9354.659,1128.14C9347.805,1128.14 9342.249,1125.239 9342.249,1121.662C9342.249,1107.338 9342.249,1073.114 9342.249,1058.79C9342.249,1055.213 9347.805,1052.313 9354.659,1052.313C9436.583,1052.313 9898.913,1052.313 9980.837,1052.313Z" style="fill:white;"/>
            </g>
            <g transform="matrix(1,0,0,1,7.95327,420.325268)">
                <circle cx="9334.346" cy="1108.13" r="61.943" style="fill:white;"/>
            </g>
        </g>
    </g>
</svg>
